<svg width="24" height="24" viewBox="0 0 24 24" fill="none" xmlns="http://www.w3.org/2000/svg">
<g clip-path="url(#clip0_301_163)">
<path d="M10.5 7.63647V11.2733V12.727V16.3638H13.5001V12.727V11.2733V7.63647H10.5Z" fill="white"/>
<path d="M1.50002 12.682C2.32845 12.682 3.00003 12.0104 3.00003 11.182C3.00003 10.3536 2.32845 9.68201 1.50002 9.68201C0.671581 9.68201 0 10.3536 0 11.182C0 12.0104 0.671581 12.682 1.50002 12.682Z" fill="white"/>
<path d="M1.50002 14.318C2.32845 14.318 3.00003 13.6464 3.00003 12.818C3.00003 11.9896 2.32845 11.318 1.50002 11.318C0.671581 11.318 0 11.9896 0 12.818C0 13.6464 0.671581 14.318 1.50002 14.318Z" fill="white"/>
<path d="M3.00003 11.182H0V12.8184H3.00003V11.182Z" fill="white"/>
<path d="M22.5 14.318C23.3285 14.318 24 13.6464 24 12.818C24 11.9896 23.3285 11.318 22.5 11.318C21.6716 11.318 21 11.9896 21 12.818C21 13.6464 21.6716 14.318 22.5 14.318Z" fill="white"/>
<path d="M22.5 12.682C23.3285 12.682 24 12.0104 24 11.182C24 10.3536 23.3285 9.68201 22.5 9.68201C21.6716 9.68201 21 10.3536 21 11.182C21 12.0104 21.6716 12.682 22.5 12.682Z" fill="white"/>
<path d="M21 12.8184H24V11.182H21V12.8184Z" fill="white"/>
<path d="M6.68153 17.5911C7.50994 17.5911 8.18153 16.9195 8.18153 16.0911C8.18153 15.2626 7.50994 14.5911 6.68153 14.5911C5.85309 14.5911 5.18152 15.2626 5.18152 16.0911C5.18152 16.9195 5.85309 17.5911 6.68153 17.5911Z" fill="white"/>
<path d="M6.68153 19.2276C7.50994 19.2276 8.18153 18.5561 8.18153 17.7276C8.18153 16.8992 7.50994 16.2275 6.68153 16.2275C5.85309 16.2275 5.18152 16.8992 5.18152 17.7276C5.18152 18.5561 5.85309 19.2276 6.68153 19.2276Z" fill="white"/>
<path d="M8.18153 16.0911H5.18152V17.7274H8.18153V16.0911Z" fill="white"/>
<path d="M6.68153 7.77245C7.50994 7.77245 8.18153 7.10088 8.18153 6.27247C8.18153 5.44404 7.50994 4.77246 6.68153 4.77246C5.85309 4.77246 5.18152 5.44404 5.18152 6.27247C5.18152 7.10088 5.85309 7.77245 6.68153 7.77245Z" fill="white"/>
<path d="M6.68153 13.0905C7.50994 13.0905 8.18153 12.4189 8.18153 11.5905C8.18153 10.762 7.50994 10.0905 6.68153 10.0905C5.85309 10.0905 5.18152 10.762 5.18152 11.5905C5.18152 12.4189 5.85309 13.0905 6.68153 13.0905Z" fill="white"/>
<path d="M8.18153 6.27246H5.18152V11.6248H8.18153V6.27246Z" fill="white"/>
<path d="M17.3185 9.40957C18.1469 9.40957 18.8185 8.73799 18.8185 7.90956C18.8185 7.08112 18.1469 6.40955 17.3185 6.40955C16.4901 6.40955 15.8185 7.08112 15.8185 7.90956C15.8185 8.73799 16.4901 9.40957 17.3185 9.40957Z" fill="white"/>
<path d="M17.3185 7.77245C18.1469 7.77245 18.8185 7.10088 18.8185 6.27247C18.8185 5.44404 18.1469 4.77246 17.3185 4.77246C16.4901 4.77246 15.8185 5.44404 15.8185 6.27247C15.8185 7.10088 16.4901 7.77245 17.3185 7.77245Z" fill="white"/>
<path d="M15.8179 7.90882H18.818V6.27246H15.8179V7.90882Z" fill="white"/>
<path d="M12 4.63649C12.8285 4.63649 13.5001 3.96492 13.5001 3.13648C13.5001 2.30805 12.8285 1.63647 12 1.63647C11.1716 1.63647 10.5 2.30805 10.5 3.13648C10.5 3.96492 11.1716 4.63649 12 4.63649Z" fill="white"/>
<path d="M12 3.00001C12.8285 3.00001 13.5001 2.32844 13.5001 1.50001C13.5001 0.671577 12.8285 0 12 0C11.1716 0 10.5 0.671577 10.5 1.50001C10.5 2.32844 11.1716 3.00001 12 3.00001Z" fill="white"/>
<path d="M10.5 3.13638H13.5001V1.5H10.5V3.13638Z" fill="white"/>
<path d="M12 24C12.8285 24 13.5001 23.3284 13.5001 22.5C13.5001 21.6716 12.8285 21 12 21C11.1716 21 10.5 21.6716 10.5 22.5C10.5 23.3284 11.1716 24 12 24Z" fill="white"/>
<path d="M12 22.364C12.8285 22.364 13.5001 21.6925 13.5001 20.864C13.5001 20.0356 12.8285 19.364 12 19.364C11.1716 19.364 10.5 20.0356 10.5 20.864C10.5 21.6925 11.1716 22.364 12 22.364Z" fill="white"/>
<path d="M10.5 22.5004H13.5001V20.864H10.5V22.5004Z" fill="white"/>
<path d="M17.3185 19.2276C18.1469 19.2276 18.8185 18.5561 18.8185 17.7276C18.8185 16.8992 18.1469 16.2275 17.3185 16.2275C16.4901 16.2275 15.8185 16.8992 15.8185 17.7276C15.8185 18.5561 16.4901 19.2276 17.3185 19.2276Z" fill="white"/>
<path d="M17.3185 13.9096C18.1469 13.9096 18.8185 13.238 18.8185 12.4096C18.8185 11.5811 18.1469 10.9095 17.3185 10.9095C16.4901 10.9095 15.8185 11.5811 15.8185 12.4096C15.8185 13.238 16.4901 13.9096 17.3185 13.9096Z" fill="white"/>
<path d="M15.8179 17.7272H18.818V12.4089H15.8179V17.7272Z" fill="white"/>
<path d="M12 9.13652C12.8285 9.13652 13.5001 8.46488 13.5001 7.63651C13.5001 6.80808 12.8285 6.13647 12 6.13647C11.1716 6.13647 10.5 6.80808 10.5 7.63651C10.5 8.46488 11.1716 9.13652 12 9.13652Z" fill="white"/>
<path d="M12 17.864C12.8285 17.864 13.5001 17.1925 13.5001 16.364C13.5001 15.5356 12.8285 14.864 12 14.864C11.1716 14.864 10.5 15.5356 10.5 16.364C10.5 17.1925 11.1716 17.864 12 17.864Z" fill="white"/>
</g>
<defs>
<clipPath id="clip0_301_163">
<rect width="24" height="24" fill="white"/>
</clipPath>
</defs>
</svg>
