<svg width="24" height="24" viewBox="0 0 24 24" fill="none" xmlns="http://www.w3.org/2000/svg">
<g clip-path="url(#clip0_301_192)">
<path d="M12 0C9.62662 0 7.30654 0.70378 5.33313 2.02233C3.35979 3.34094 1.82173 5.21511 0.913423 7.40778C0.00518715 9.60052 -0.232448 12.0133 0.230606 14.3411C0.69359 16.6689 1.83646 18.807 3.51471 20.4853C5.19295 22.1635 7.33118 23.3064 9.65895 23.7694C11.9867 24.2324 14.3995 23.9948 16.5922 23.0865C18.7849 22.1783 20.6591 20.6402 21.9777 18.6668C23.2962 16.6935 24 14.3734 24 12C24 8.81738 22.7357 5.76516 20.4853 3.51474C18.2348 1.26425 15.1826 0 12 0ZM17.5068 17.3057C17.4557 17.3905 17.3883 17.4643 17.3085 17.5228C17.2286 17.5813 17.138 17.6234 17.0417 17.6465C16.9455 17.6697 16.8456 17.6735 16.7479 17.6577C16.6501 17.6419 16.5565 17.6069 16.4725 17.5547C13.6569 15.8308 10.1133 15.4477 5.93776 16.3959C5.84275 16.4185 5.74425 16.4221 5.64784 16.4064C5.5515 16.3906 5.45914 16.3559 5.37635 16.3043C5.29348 16.2526 5.22171 16.185 5.16517 16.1054C5.10862 16.0257 5.06855 15.9357 5.04712 15.8404C5.02429 15.7448 5.02066 15.6457 5.03623 15.5486C5.05186 15.4516 5.08642 15.3586 5.13801 15.275C5.1896 15.1914 5.25725 15.1188 5.3369 15.0613C5.41663 15.0039 5.50689 14.9627 5.60253 14.9401C10.1708 13.8962 14.0974 14.3464 17.2578 16.2809C17.4264 16.384 17.5473 16.5498 17.594 16.7418C17.6407 16.9339 17.6093 17.1367 17.5068 17.3057ZM18.9721 14.0399C18.8383 14.2458 18.6304 14.3923 18.3916 14.4494C18.1528 14.5064 17.9012 14.4695 17.6888 14.3464C14.0474 12.3151 9.74858 11.8122 5.73664 12.9481C5.61182 13.0177 5.47296 13.0585 5.33034 13.0674C5.18765 13.0764 5.04481 13.0533 4.91224 12.9998C4.77967 12.9464 4.66079 12.864 4.56424 12.7586C4.46769 12.6532 4.39592 12.5275 4.35425 12.3909C4.31257 12.2541 4.30203 12.1098 4.32339 11.9685C4.34475 11.8271 4.39746 11.6924 4.47767 11.5741C4.55788 11.4558 4.66358 11.357 4.78694 11.2848C4.91036 11.2127 5.04831 11.1691 5.19072 11.1572C7.43004 10.5126 9.7756 10.322 12.0896 10.5967C14.4036 10.8713 16.6394 11.6057 18.6656 12.7566C18.8715 12.8904 19.018 13.0982 19.0751 13.337C19.1321 13.5759 19.0952 13.8275 18.9721 14.0399ZM19.0966 10.6401C15.2658 8.34155 8.85878 8.13085 5.16203 9.25138C4.87755 9.33779 4.57038 9.30758 4.30817 9.16744C4.04596 9.02737 3.85015 8.78886 3.76379 8.50436C3.67743 8.21994 3.70759 7.91276 3.8477 7.65052C3.98774 7.38834 4.22628 7.19251 4.51076 7.10617C8.75343 5.82283 15.7925 6.07184 20.2459 8.70548C20.4748 8.86935 20.6337 9.11336 20.6909 9.38905C20.7481 9.66468 20.6994 9.95178 20.5546 10.1933C20.4097 10.4347 20.1793 10.6127 19.9092 10.6919C19.639 10.7712 19.3489 10.7458 19.0966 10.6209V10.6401Z" fill="white"/>
</g>
<defs>
<clipPath id="clip0_301_192">
<rect width="24" height="24" fill="white"/>
</clipPath>
</defs>
</svg>
