<svg width="537" height="593" viewBox="0 0 537 593" fill="none" xmlns="http://www.w3.org/2000/svg">
<path d="M105.612 83.9508C105.612 130.457 123.597 208.876 55.6825 293.648C-10.6533 376.45 80.6069 114.254 172.261 98.0256C279.398 79.0554 94.7582 518.301 85.2377 428.909C79.9113 378.898 234.884 116.399 278.475 159.991C333.929 215.445 188.519 532.191 154.565 526.981C94.6659 517.791 308.897 153.446 369.684 184.826C442.168 222.244 322.694 471.949 267.255 485.343C222.904 496.057 388.32 254.065 499.012 309.449" stroke="black" stroke-width="8" stroke-linecap="round"/>
<path d="M506.507 289.989C507.588 288.054 510.546 289.052 510.233 291.246L509.657 295.288C509.469 296.605 510.594 297.734 511.912 297.552L527.626 295.372C529.746 295.078 530.784 297.871 528.987 299.033L517.309 306.583C515.955 307.459 516.141 309.496 517.632 310.111L525.582 313.393C527.409 314.148 527.151 316.813 525.212 317.203L520.01 318.248C518.834 318.484 518.129 319.694 518.503 320.833L519.98 325.327C520.544 327.044 518.721 328.569 517.131 327.711L510.787 324.291C509.159 323.413 507.314 325.026 507.966 326.756L511.455 336.022C512.212 338.032 509.7 339.66 508.175 338.147L498.312 328.364C497.676 327.733 496.698 327.602 495.918 328.043L484.799 334.334C482.946 335.382 480.956 333.195 482.174 331.449L488.723 322.062C489.322 321.204 489.157 320.028 488.345 319.367L476.928 310.073C475.468 308.885 476.308 306.522 478.19 306.522H486.986C487.981 306.522 488.824 305.791 488.966 304.807L490.345 295.245C490.643 293.176 493.514 292.894 494.21 294.864L496.444 301.188C497.018 302.811 499.237 303 500.076 301.497L506.507 289.989Z" fill="#CD4631"/>
</svg>
